<svg width="20" height="20" fill="none" xmlns="http://www.w3.org/2000/svg">
    <path
        d="M11.58 13.148a7.419 7.419 0 0 0-1.558-.831 3.976 3.976 0 0 0 1.294-2.623 5.82 5.82 0 0 1 4.097-1.664c1.21 0 2.371.365 3.359 1.054a.781.781 0 1 0 .894-1.282 7.426 7.426 0 0 0-1.559-.831 3.974 3.974 0 0 0 1.307-2.948A3.988 3.988 0 0 0 15.43.039a3.988 3.988 0 0 0-3.984 3.984c0 1.162.5 2.21 1.297 2.939a7.383 7.383 0 0 0-1.7.924 3.99 3.99 0 0 0-3.698-2.5 3.988 3.988 0 0 0-3.984 3.983c0 1.159.498 2.204 1.29 2.932-2.119.794-3.837 2.5-4.536 4.674a2.32 2.32 0 0 0 .337 2.098 2.32 2.32 0 0 0 1.894.964h6.796a.781.781 0 0 0 0-1.563H2.346a.774.774 0 0 1-.632-.32.774.774 0 0 1-.112-.7c.772-2.401 3.127-4.078 5.726-4.078 1.21 0 2.371.365 3.359 1.054a.781.781 0 1 0 .894-1.282Zm3.85-11.547a2.424 2.424 0 0 1 2.422 2.422 2.424 2.424 0 0 1-2.422 2.422 2.424 2.424 0 0 1-2.421-2.422 2.424 2.424 0 0 1 2.421-2.422ZM7.345 6.947A2.424 2.424 0 0 1 9.767 9.37a2.424 2.424 0 0 1-2.422 2.421A2.424 2.424 0 0 1 4.924 9.37a2.424 2.424 0 0 1 2.421-2.422ZM20 16.327c0 .43-.35.78-.781.78H17.07v2.148a.781.781 0 1 1-1.563 0v-2.148H13.36a.781.781 0 0 1 0-1.562h2.148v-2.148a.781.781 0 0 1 1.563 0v2.148h2.148c.431 0 .781.35.781.781Z"
        fill="#181C27" />
</svg>