<svg width="30" height="30" viewBox="0 0 30 30" fill="none" xmlns="http://www.w3.org/2000/svg">
<circle cx="15" cy="15" r="15" fill="#A6A6A6"/>
<g clip-path="url(#clip0_8681_109)">
<path d="M23.0575 12.3238L23.0575 12.3238C23.2734 12.1077 23.6237 12.1077 23.8398 12.3238L25.4142 13.8983C26.0411 14.5251 26.0411 15.5452 25.4142 16.1721L23.8398 17.7465C23.7317 17.8546 23.5904 17.9086 23.4486 17.9086C23.3068 17.9086 23.1656 17.8546 23.0575 17.7465L23.0575 17.7465C22.8414 17.5306 22.8414 17.1804 23.0575 16.9644L23.0575 16.9644L24.1774 15.8443L24.4335 15.5883H24.0714H15.6289C15.3234 15.5883 15.0758 15.3407 15.0758 15.0352C15.0758 14.7296 15.3234 14.482 15.6289 14.482H24.0714H24.4335L24.1774 14.226L23.0575 13.1059L23.0575 13.1059C22.8414 12.8899 22.8414 12.5397 23.0575 12.3238ZM20.5766 19.7812V21.1875C20.5766 22.6555 19.3821 23.85 17.9141 23.85H10.8477C9.37964 23.85 8.18516 22.6555 8.18516 21.1875V8.8125C8.18516 7.34449 9.37964 6.15 10.8477 6.15H17.9141C19.3821 6.15 20.5766 7.34449 20.5766 8.8125V10.2188C20.5766 10.5243 20.329 10.7719 20.0234 10.7719C19.7179 10.7719 19.4703 10.5243 19.4703 10.2188V8.8125C19.4703 7.9543 18.7723 7.25625 17.9141 7.25625H10.8477C9.98945 7.25625 9.29141 7.9543 9.29141 8.8125V21.1875C9.29141 22.0457 9.98945 22.7437 10.8477 22.7437H17.9141C18.7723 22.7437 19.4703 22.0457 19.4703 21.1875V19.7812C19.4703 19.4757 19.7179 19.2281 20.0234 19.2281C20.329 19.2281 20.5766 19.4757 20.5766 19.7812Z" fill="#F1F2F7" stroke="#F1F2F7" stroke-width="0.3"/>
</g>
<defs>
<clipPath id="clip0_8681_109">
<rect width="18" height="18" fill="white" transform="translate(8 6)"/>
</clipPath>
</defs>
</svg>
