<!-- Generated by IcoMoon.io -->
<svg version="1.1" xmlns="http://www.w3.org/2000/svg" width="32" height="32" viewBox="0 0 32 32">
<title>logout-1</title>
<path opacity="1" stroke="#fff" stroke-linejoin="miter" stroke-linecap="butt" stroke-miterlimit="4" stroke-width="0.5333" fill="#ff6b08" d="M26.769 11.242v-0c0.384-0.384 1.007-0.384 1.391 0l2.799 2.799c1.115 1.114 1.115 2.928 0 4.042l-2.799 2.799c-0.192 0.192-0.443 0.288-0.695 0.288s-0.503-0.096-0.695-0.288v0c-0.384-0.384-0.384-1.006 0-1.39v0l2.446-2.446h-15.653c-0.543 0-0.983-0.44-0.983-0.983s0.44-0.983 0.983-0.983h15.653l-2.446-2.447c-0.384-0.384-0.384-1.006 0-1.39zM22.358 24.5v2.5c0 2.61-2.124 4.733-4.733 4.733h-12.563c-2.61 0-4.733-2.124-4.733-4.733v-22c0-2.61 2.124-4.733 4.733-4.733h12.563c2.61 0 4.733 2.124 4.733 4.733v2.5c0 0.543-0.44 0.983-0.983 0.983s-0.983-0.44-0.983-0.983v-2.5c0-1.526-1.241-2.767-2.767-2.767h-12.563c-1.526 0-2.767 1.241-2.767 2.767v22c0 1.526 1.241 2.767 2.767 2.767h12.563c1.526 0 2.767-1.241 2.767-2.767v-2.5c0-0.543 0.44-0.983 0.983-0.983s0.983 0.44 0.983 0.983z"></path>
</svg>