<svg width="0" height="0" class="hidden">
  <symbol fill="none" xmlns="http://www.w3.org/2000/svg" viewBox="0 0 20 20" id="change">
    <path d="M9.99967 0C4.47707 0 0 4.4774 0 9.9998C0 15.5222 4.47707 20 9.99967 20C15.5223 20 19.9999 15.5225 19.9999 9.9998C19.9999 4.47713 15.5223 0 9.99967 0ZM14.7534 7.19633L13.8036 8.14613L11.8702 6.21287L11.1367 6.94633L13.0701 8.87973L8.328 13.6215L6.39473 11.6884L5.66127 12.4219L7.59453 14.3551L7.122 14.8277L7.113 14.8187C7.0606 14.9049 6.9754 14.9679 6.8742 14.9903L5.07133 15.3923C5.04433 15.3984 5.01687 15.4013 4.98973 15.4013C4.89133 15.4013 4.79573 15.3626 4.72487 15.2915C4.63393 15.2009 4.59607 15.0701 4.62407 14.9447L5.02587 13.1423C5.04853 13.0412 5.1116 12.9558 5.19773 12.9035L5.1886 12.8944L12.8199 5.26273C12.9318 5.15107 13.1135 5.15107 13.2254 5.26307L14.7535 6.79087C14.8654 6.90273 14.8654 7.08447 14.7534 7.19633Z" fill="#A6A6A6"></path>
  </symbol>
  <symbol fill="none" xmlns="http://www.w3.org/2000/svg" viewBox="0 0 10 14" id="previous">
    <path d="M9 13L1 7L9 1" stroke="#181C27"></path>
  </symbol>
  <symbol fill="none" xmlns="http://www.w3.org/2000/svg" viewBox="0 0 10 14" id="next">
    <path d="M1 13L9 7L1 1" stroke="#181C27"></path>
  </symbol>
  <symbol fill="none" xmlns="http://www.w3.org/2000/svg" viewBox="0 0 52 52" id="analytics">
    <g filter="url(#filter0_d_26_110)">
      <rect x="4" y="1" width="44" height="44" rx="22" fill="#FF6B08"></rect>
    </g>
    <g clip-path="url(#clip0_26_110)">
      <path d="M36.5417 33.0834H15.4583C15.2053 33.0834 15 33.2887 15 33.5417C15 33.7947 15.2053 34 15.4583 34H36.5417C36.7947 34 37 33.7947 37 33.5417C37 33.2887 36.7947 33.0834 36.5417 33.0834Z" fill="white"></path>
      <path d="M19.1249 27.5834H16.3749C16.1219 27.5834 15.9165 27.7887 15.9165 28.0417V33.5417C15.9165 33.7947 16.1219 34 16.3749 34H19.1249C19.3779 34 19.5832 33.7947 19.5832 33.5417V28.0417C19.5832 27.7887 19.3779 27.5834 19.1249 27.5834ZM18.6665 33.0834H16.8332V28.5H18.6665V33.0834H18.6665Z" fill="white"></path>
      <path d="M24.6249 23H21.8749C21.6219 23 21.4165 23.2053 21.4165 23.4583V33.5417C21.4165 33.7947 21.6219 34 21.8749 34H24.6249C24.8779 34 25.0832 33.7947 25.0832 33.5417V23.4583C25.0832 23.2053 24.8779 23 24.6249 23ZM24.1665 33.0833H22.3332V23.9167H24.1665V33.0833Z" fill="white"></path>
      <path d="M30.1248 24.8334H27.3749C27.1219 24.8334 26.9165 25.0387 26.9165 25.2917V33.5417C26.9165 33.7947 27.1219 34.0001 27.3749 34.0001H30.1248C30.3778 34.0001 30.5832 33.7947 30.5832 33.5417V25.2917C30.5832 25.0387 30.3778 24.8334 30.1248 24.8334ZM29.6665 33.0834H27.8332V25.75H29.6665V33.0834Z" fill="white"></path>
      <path d="M35.6249 19.3334H32.8749C32.6219 19.3334 32.4165 19.5387 32.4165 19.7917V33.5417C32.4165 33.7947 32.6219 34.0001 32.8749 34.0001H35.6249C35.8779 34.0001 36.0832 33.7947 36.0832 33.5417V19.7917C36.0832 19.5387 35.8779 19.3334 35.6249 19.3334ZM35.1665 33.0834H33.3332V20.25H35.1665V33.0834Z" fill="white"></path>
      <path d="M17.7499 20.25C16.7388 20.25 15.9165 21.0723 15.9165 22.0833C15.9165 23.0944 16.7388 23.9167 17.7499 23.9167C18.7609 23.9167 19.5832 23.0944 19.5832 22.0833C19.5832 21.0723 18.7609 20.25 17.7499 20.25ZM17.7499 23C17.2439 23 16.8332 22.5884 16.8332 22.0833C16.8332 21.5783 17.2439 21.1667 17.7499 21.1667C18.2559 21.1667 18.6665 21.5783 18.6665 22.0833C18.6665 22.5884 18.2559 23 17.7499 23Z" fill="white"></path>
      <path d="M23.2499 15.6666C22.2388 15.6666 21.4165 16.4889 21.4165 17.5C21.4165 18.5111 22.2388 19.3333 23.2499 19.3333C24.2609 19.3333 25.0832 18.5111 25.0832 17.5C25.0832 16.4889 24.2609 15.6666 23.2499 15.6666ZM23.2499 18.4166C22.7439 18.4166 22.3332 18.005 22.3332 17.5C22.3332 16.9949 22.7439 16.5833 23.2499 16.5833C23.7559 16.5833 24.1665 16.9949 24.1665 17.5C24.1665 18.0051 23.7559 18.4166 23.2499 18.4166Z" fill="white"></path>
      <path d="M28.7499 17.5C27.7388 17.5 26.9165 18.3223 26.9165 19.3333C26.9165 20.3444 27.7388 21.1667 28.7499 21.1667C29.7609 21.1667 30.5832 20.3444 30.5832 19.3333C30.5832 18.3223 29.7609 17.5 28.7499 17.5ZM28.7499 20.25C28.2439 20.25 27.8332 19.8384 27.8332 19.3333C27.8332 18.8283 28.2439 18.4167 28.7499 18.4167C29.2559 18.4167 29.6665 18.8283 29.6665 19.3333C29.6665 19.8384 29.2559 20.25 28.7499 20.25Z" fill="white"></path>
      <path d="M34.2499 12C33.2388 12 32.4165 12.8223 32.4165 13.8333C32.4165 14.8444 33.2388 15.6667 34.2499 15.6667C35.2609 15.6667 36.0832 14.8444 36.0832 13.8333C36.0832 12.8223 35.2609 12 34.2499 12ZM34.2499 14.75C33.7439 14.75 33.3332 14.3384 33.3332 13.8333C33.3332 13.3283 33.7439 12.9167 34.2499 12.9167C34.7559 12.9167 35.1665 13.3283 35.1665 13.8333C35.1665 14.3384 34.7559 14.75 34.2499 14.75Z" fill="white"></path>
      <path d="M33.603 14.4805C33.4242 14.3017 33.1336 14.3017 32.9549 14.4805L29.3982 18.0372C29.2195 18.2159 29.2195 18.5065 29.3982 18.6852C29.4881 18.7742 29.6054 18.8191 29.7227 18.8191C29.8391 18.8191 29.9565 18.7751 30.0463 18.6852L33.603 15.1286C33.7817 14.9498 33.7817 14.6592 33.603 14.4805Z" fill="white"></path>
      <path d="M27.642 18.2755L24.6976 17.4358C24.451 17.3643 24.2008 17.5073 24.132 17.7511C24.0624 17.995 24.2035 18.248 24.4464 18.3176L27.3908 19.1573C27.4329 19.1692 27.4751 19.1747 27.5164 19.1747C27.7162 19.1747 27.8995 19.0436 27.9573 18.842C28.027 18.599 27.8858 18.3451 27.642 18.2755Z" fill="white"></path>
      <path d="M22.5349 18.0711C22.3772 17.8731 22.0894 17.841 21.8914 17.9977L18.4355 20.7532C18.2375 20.9118 18.2045 21.1996 18.3631 21.3976C18.4539 21.5113 18.5877 21.57 18.7215 21.57C18.8214 21.57 18.9223 21.537 19.0066 21.471L22.4625 18.7155C22.6605 18.5569 22.6935 18.2691 22.5349 18.0711Z" fill="white"></path>
    </g>
    <defs>
      <filter id="filter0_d_26_110" x="0" y="0" width="52" height="52" filterUnits="userSpaceOnUse" color-interpolation-filters="sRGB">
        <feFlood flood-opacity="0" result="BackgroundImageFix"></feFlood>
        <feColorMatrix in="SourceAlpha" type="matrix" values="0 0 0 0 0 0 0 0 0 0 0 0 0 0 0 0 0 0 127 0" result="hardAlpha"></feColorMatrix>
        <feOffset dy="3"></feOffset>
        <feGaussianBlur stdDeviation="2"></feGaussianBlur>
        <feColorMatrix type="matrix" values="0 0 0 0 1 0 0 0 0 0.419608 0 0 0 0 0.0313726 0 0 0 0.3 0"></feColorMatrix>
        <feBlend mode="normal" in2="BackgroundImageFix" result="effect1_dropShadow_26_110"></feBlend>
        <feBlend mode="normal" in="SourceGraphic" in2="effect1_dropShadow_26_110" result="shape"></feBlend>
      </filter>
      <clipPath id="clip0_26_110">
        <rect width="22" height="22" fill="white" transform="translate(15 12)"></rect>
      </clipPath>
    </defs>
  </symbol>
  <symbol fill="none" xmlns="http://www.w3.org/2000/svg" viewBox="0 0 20 21" id="delete">
    <path fill-rule="evenodd" clip-rule="evenodd" d="M10 0.5C4.47715 0.5 0 4.97715 0 10.5C0 16.0228 4.47715 20.5 10 20.5C15.5228 20.5 20 16.0228 20 10.5C20 4.97715 15.5228 0.5 10 0.5ZM11.0064 5.22437H9.00086V5.56183H8.2765V5.17712C8.2765 4.80377 8.58009 4.5 8.95326 4.5H11.054C11.4272 4.5 11.7308 4.80377 11.7307 5.17712V5.56183H11.0064V5.22437ZM13.4034 8.43164H6.60393C6.41762 8.43164 6.27095 8.59058 6.28597 8.77634L6.85442 15.8054C6.88609 16.1978 7.2134 16.5 7.60661 16.5H12.4006C12.7938 16.5 13.1211 16.1978 13.1528 15.8053L13.7212 8.77634C13.7363 8.59058 13.5897 8.43164 13.4034 8.43164ZM8.25032 15.7503C8.24272 15.7507 8.23512 15.751 8.22762 15.751C8.03774 15.751 7.87834 15.6031 7.86653 15.4111L7.5103 9.64059C7.49803 9.44092 7.64992 9.26907 7.8495 9.25681C8.04845 9.24472 8.22102 9.39624 8.23329 9.59601L8.58943 15.3665C8.60179 15.5662 8.44991 15.7379 8.25032 15.7503ZM10.3699 15.3888C10.3699 15.5888 10.2077 15.7509 10.0077 15.7509C9.80763 15.7509 9.64549 15.5888 9.64549 15.3888V9.61826C9.64549 9.41821 9.80763 9.25607 10.0077 9.25607C10.2076 9.25607 10.3699 9.41821 10.3699 9.61826V15.3888ZM12.497 9.63959L12.1569 15.4101C12.1456 15.6025 11.9859 15.7509 11.7957 15.7509L11.7809 15.7507L11.7741 15.7504C11.5744 15.7386 11.4221 15.5672 11.4339 15.3675L11.7739 9.59692C11.7856 9.39725 11.9565 9.2449 12.1567 9.25671C12.3564 9.26843 12.5087 9.43991 12.497 9.63959ZM14.418 6.60096L14.6559 7.31397C14.7017 7.45139 14.642 7.59165 14.5306 7.66159C14.4853 7.69016 14.4315 7.70728 14.3724 7.70728H5.63498C5.57593 7.70728 5.52218 7.69016 5.47677 7.66169C5.36535 7.59174 5.30566 7.45148 5.35153 7.31397L5.58938 6.60096C5.65201 6.413 5.82806 6.2862 6.02618 6.2862H13.9811C14.1793 6.2862 14.3553 6.413 14.418 6.60096Z" fill="#A6A6A6"></path>
  </symbol>
  <symbol fill="none" xmlns="http://www.w3.org/2000/svg" viewBox="0 0 20 20" id="search">
    <g clip-path="url(#clip0_37_20)">
      <path d="M19.7556 18.5774L14.0682 12.89C15.1699 11.5292 15.8332 9.80003 15.8332 7.91672C15.8332 3.55177 12.2815 0.00012207 7.91656 0.00012207C3.55161 0.00012207 0 3.55173 0 7.91669C0 12.2816 3.55165 15.8333 7.9166 15.8333C9.7999 15.8333 11.5291 15.17 12.8899 14.0683L18.5773 19.7558C18.7398 19.9182 18.9531 19.9999 19.1665 19.9999C19.3798 19.9999 19.5932 19.9182 19.7557 19.7558C20.0815 19.4299 20.0815 18.9033 19.7556 18.5774ZM7.9166 14.1666C4.46996 14.1666 1.66666 11.3633 1.66666 7.91669C1.66666 4.47004 4.46996 1.66675 7.9166 1.66675C11.3632 1.66675 14.1665 4.47004 14.1665 7.91669C14.1665 11.3633 11.3632 14.1666 7.9166 14.1666Z" fill="#A6A6A6"></path>
    </g>
    <defs>
      <clipPath id="clip0_37_20">
        <rect width="20" height="20" fill="white"></rect>
      </clipPath>
    </defs>
  </symbol>
  <symbol fill="none" xmlns="http://www.w3.org/2000/svg" viewBox="0 0 31 8" id="arrow">
    <path d="M0.646444 3.64645C0.451183 3.84171 0.451183 4.15829 0.646444 4.35356L3.82842 7.53554C4.02369 7.7308 4.34027 7.7308 4.53553 7.53554C4.7308 7.34027 4.7308 7.02369 4.53553 6.82843L1.70711 4L4.53553 1.17158C4.73079 0.976313 4.73079 0.659731 4.53553 0.464468C4.34027 0.269206 4.02369 0.269206 3.82842 0.464468L0.646444 3.64645ZM31 3.5L0.999998 3.5L0.999998 4.5L31 4.5L31 3.5Z" fill="#181C27"></path>
  </symbol>
  <symbol fill="none" xmlns="http://www.w3.org/2000/svg" viewBox="0 0 18 18" id="add">
    <path d="M17.9343 9.595H9.63526V17.679H8.30226V9.595H0.0462579V8.348H8.30226V0.220999H9.63526V8.348H17.9343V9.595Z" fill="white"></path>
  </symbol>
</svg>