<svg width="52" height="52" viewBox="0 0 52 52" fill="none" xmlns="http://www.w3.org/2000/svg">
<g filter="url(#filter0_d_26_110)">
<rect x="4" y="1" width="44" height="44" rx="22" fill="#FF6B08"/>
</g>
<g clip-path="url(#clip0_26_110)">
<path d="M36.5417 33.0834H15.4583C15.2053 33.0834 15 33.2887 15 33.5417C15 33.7947 15.2053 34 15.4583 34H36.5417C36.7947 34 37 33.7947 37 33.5417C37 33.2887 36.7947 33.0834 36.5417 33.0834Z" fill="white"/>
<path d="M19.1249 27.5834H16.3749C16.1219 27.5834 15.9165 27.7887 15.9165 28.0417V33.5417C15.9165 33.7947 16.1219 34 16.3749 34H19.1249C19.3779 34 19.5832 33.7947 19.5832 33.5417V28.0417C19.5832 27.7887 19.3779 27.5834 19.1249 27.5834ZM18.6665 33.0834H16.8332V28.5H18.6665V33.0834H18.6665Z" fill="white"/>
<path d="M24.6249 23H21.8749C21.6219 23 21.4165 23.2053 21.4165 23.4583V33.5417C21.4165 33.7947 21.6219 34 21.8749 34H24.6249C24.8779 34 25.0832 33.7947 25.0832 33.5417V23.4583C25.0832 23.2053 24.8779 23 24.6249 23ZM24.1665 33.0833H22.3332V23.9167H24.1665V33.0833Z" fill="white"/>
<path d="M30.1248 24.8334H27.3749C27.1219 24.8334 26.9165 25.0387 26.9165 25.2917V33.5417C26.9165 33.7947 27.1219 34.0001 27.3749 34.0001H30.1248C30.3778 34.0001 30.5832 33.7947 30.5832 33.5417V25.2917C30.5832 25.0387 30.3778 24.8334 30.1248 24.8334ZM29.6665 33.0834H27.8332V25.75H29.6665V33.0834Z" fill="white"/>
<path d="M35.6249 19.3334H32.8749C32.6219 19.3334 32.4165 19.5387 32.4165 19.7917V33.5417C32.4165 33.7947 32.6219 34.0001 32.8749 34.0001H35.6249C35.8779 34.0001 36.0832 33.7947 36.0832 33.5417V19.7917C36.0832 19.5387 35.8779 19.3334 35.6249 19.3334ZM35.1665 33.0834H33.3332V20.25H35.1665V33.0834Z" fill="white"/>
<path d="M17.7499 20.25C16.7388 20.25 15.9165 21.0723 15.9165 22.0833C15.9165 23.0944 16.7388 23.9167 17.7499 23.9167C18.7609 23.9167 19.5832 23.0944 19.5832 22.0833C19.5832 21.0723 18.7609 20.25 17.7499 20.25ZM17.7499 23C17.2439 23 16.8332 22.5884 16.8332 22.0833C16.8332 21.5783 17.2439 21.1667 17.7499 21.1667C18.2559 21.1667 18.6665 21.5783 18.6665 22.0833C18.6665 22.5884 18.2559 23 17.7499 23Z" fill="white"/>
<path d="M23.2499 15.6666C22.2388 15.6666 21.4165 16.4889 21.4165 17.5C21.4165 18.5111 22.2388 19.3333 23.2499 19.3333C24.2609 19.3333 25.0832 18.5111 25.0832 17.5C25.0832 16.4889 24.2609 15.6666 23.2499 15.6666ZM23.2499 18.4166C22.7439 18.4166 22.3332 18.005 22.3332 17.5C22.3332 16.9949 22.7439 16.5833 23.2499 16.5833C23.7559 16.5833 24.1665 16.9949 24.1665 17.5C24.1665 18.0051 23.7559 18.4166 23.2499 18.4166Z" fill="white"/>
<path d="M28.7499 17.5C27.7388 17.5 26.9165 18.3223 26.9165 19.3333C26.9165 20.3444 27.7388 21.1667 28.7499 21.1667C29.7609 21.1667 30.5832 20.3444 30.5832 19.3333C30.5832 18.3223 29.7609 17.5 28.7499 17.5ZM28.7499 20.25C28.2439 20.25 27.8332 19.8384 27.8332 19.3333C27.8332 18.8283 28.2439 18.4167 28.7499 18.4167C29.2559 18.4167 29.6665 18.8283 29.6665 19.3333C29.6665 19.8384 29.2559 20.25 28.7499 20.25Z" fill="white"/>
<path d="M34.2499 12C33.2388 12 32.4165 12.8223 32.4165 13.8333C32.4165 14.8444 33.2388 15.6667 34.2499 15.6667C35.2609 15.6667 36.0832 14.8444 36.0832 13.8333C36.0832 12.8223 35.2609 12 34.2499 12ZM34.2499 14.75C33.7439 14.75 33.3332 14.3384 33.3332 13.8333C33.3332 13.3283 33.7439 12.9167 34.2499 12.9167C34.7559 12.9167 35.1665 13.3283 35.1665 13.8333C35.1665 14.3384 34.7559 14.75 34.2499 14.75Z" fill="white"/>
<path d="M33.603 14.4805C33.4242 14.3017 33.1336 14.3017 32.9549 14.4805L29.3982 18.0372C29.2195 18.2159 29.2195 18.5065 29.3982 18.6852C29.4881 18.7742 29.6054 18.8191 29.7227 18.8191C29.8391 18.8191 29.9565 18.7751 30.0463 18.6852L33.603 15.1286C33.7817 14.9498 33.7817 14.6592 33.603 14.4805Z" fill="white"/>
<path d="M27.642 18.2755L24.6976 17.4358C24.451 17.3643 24.2008 17.5073 24.132 17.7511C24.0624 17.995 24.2035 18.248 24.4464 18.3176L27.3908 19.1573C27.4329 19.1692 27.4751 19.1747 27.5164 19.1747C27.7162 19.1747 27.8995 19.0436 27.9573 18.842C28.027 18.599 27.8858 18.3451 27.642 18.2755Z" fill="white"/>
<path d="M22.5349 18.0711C22.3772 17.8731 22.0894 17.841 21.8914 17.9977L18.4355 20.7532C18.2375 20.9118 18.2045 21.1996 18.3631 21.3976C18.4539 21.5113 18.5877 21.57 18.7215 21.57C18.8214 21.57 18.9223 21.537 19.0066 21.471L22.4625 18.7155C22.6605 18.5569 22.6935 18.2691 22.5349 18.0711Z" fill="white"/>
</g>
<defs>
<filter id="filter0_d_26_110" x="0" y="0" width="52" height="52" filterUnits="userSpaceOnUse" color-interpolation-filters="sRGB">
<feFlood flood-opacity="0" result="BackgroundImageFix"/>
<feColorMatrix in="SourceAlpha" type="matrix" values="0 0 0 0 0 0 0 0 0 0 0 0 0 0 0 0 0 0 127 0" result="hardAlpha"/>
<feOffset dy="3"/>
<feGaussianBlur stdDeviation="2"/>
<feColorMatrix type="matrix" values="0 0 0 0 1 0 0 0 0 0.419608 0 0 0 0 0.0313726 0 0 0 0.3 0"/>
<feBlend mode="normal" in2="BackgroundImageFix" result="effect1_dropShadow_26_110"/>
<feBlend mode="normal" in="SourceGraphic" in2="effect1_dropShadow_26_110" result="shape"/>
</filter>
<clipPath id="clip0_26_110">
<rect width="22" height="22" fill="white" transform="translate(15 12)"/>
</clipPath>
</defs>
</svg>
