<!-- Generated by IcoMoon.io -->
<svg version="1.1" xmlns="http://www.w3.org/2000/svg" width="32" height="32" viewBox="0 0 32 32">
<title>logout-2</title>
<path fill="#ff6b08" d="M32 16c0 8.837-7.163 16-16 16s-16-7.163-16-16c0-8.837 7.163-16 16-16s16 7.163 16 16z"></path>
<path fill="#f1f2f7" d="M24.595 13.145v0c0.23-0.23 0.604-0.23 0.834 0l1.679 1.679c0.669 0.669 0.669 1.757 0 2.425l-1.679 1.679c-0.115 0.115-0.266 0.173-0.417 0.173s-0.302-0.058-0.417-0.173v0c-0.23-0.23-0.23-0.604 0-0.834v0l1.468-1.468h-9.392c-0.326 0-0.59-0.264-0.59-0.59s0.264-0.59 0.59-0.59h9.392l-1.468-1.468c-0.23-0.23-0.23-0.604 0-0.834zM21.948 21.1v1.5c0 1.566-1.274 2.84-2.84 2.84h-7.537c-1.566 0-2.84-1.274-2.84-2.84v-13.2c0-1.566 1.274-2.84 2.84-2.84h7.537c1.566 0 2.84 1.274 2.84 2.84v1.5c0 0.326-0.264 0.59-0.59 0.59s-0.59-0.264-0.59-0.59v-1.5c0-0.915-0.745-1.66-1.66-1.66h-7.537c-0.915 0-1.66 0.745-1.66 1.66v13.2c0 0.915 0.745 1.66 1.66 1.66h7.537c0.915 0 1.66-0.745 1.66-1.66v-1.5c0-0.326 0.264-0.59 0.59-0.59s0.59 0.264 0.59 0.59z"></path>
</svg>